<?xml version="1.0" encoding="utf-8"?>
<!-- Generator: Adobe Illustrator 19.0.1, SVG Export Plug-In . SVG Version: 6.00 Build 0)  -->
<svg version="1.1" id="Capa_2" xmlns="http://www.w3.org/2000/svg" xmlns:xlink="http://www.w3.org/1999/xlink" x="0px" y="0px"
	 viewBox="0 0 80.4 58.9" style="enable-background:new 0 0 80.4 58.9;" xml:space="preserve">
<style type="text/css">
	.st0{fill:#4973B8;}
	.st1{fill:#183154;}
</style>
<g>
	<path class="st0" d="M48.6,7.4C43.6,2.9,35.9,0,27.2,0C12.2,0,0,8.7,0,19.4c0,5.9,3.7,11.2,9.6,14.7c1.8,8.3-1.4,12.6-1.4,12.6
		c13.1-2.4,14.7-8.2,14.7-8.2c-1.4-2.6-2.1-5.3-2.1-8.2C20.7,18.6,32.8,9,48.6,7.4z"/>
	<path class="st1" d="M69.7,45.7c6.5-3.5,10.8-9.1,10.8-15.4c0-10.7-12.2-19.4-27.2-19.4S26,19.5,26,30.2C26,41,38.2,49.6,53.2,49.6
		c0.5,0,1.1,0,1.6,0C64.3,60.4,71,58.8,71,58.8C68.2,51.5,69.7,45.7,69.7,45.7L69.7,45.7z"/>
</g>
</svg>
