<?xml version="1.0" encoding="utf-8"?>
<!-- Generator: Adobe Illustrator 19.0.1, SVG Export Plug-In . SVG Version: 6.00 Build 0)  -->
<svg version="1.1" id="Capa_2" xmlns="http://www.w3.org/2000/svg" xmlns:xlink="http://www.w3.org/1999/xlink" x="0px" y="0px"
	 viewBox="0 0 124.4 128.1" style="enable-background:new 0 0 124.4 128.1;" xml:space="preserve">
<style type="text/css">
	.st0{fill:#FFFFFF;}
	.st1{fill:#E8F3F1;}
</style>
<g>
	<path class="st0" d="M101.1,122.3H25.4c-4.7,0-8.6-3.9-8.6-8.6V14.4c0-4.7,3.9-8.6,8.6-8.6h75.6c4.7,0,8.6,3.9,8.6,8.6v99.3
		C109.7,118.4,105.8,122.3,101.1,122.3z M25.4,9.8c-2.5,0-4.6,2.1-4.6,4.6v99.3c0,2.5,2.1,4.6,4.6,4.6h75.6c2.5,0,4.6-2.1,4.6-4.6
		V14.4c0-2.5-2.1-4.6-4.6-4.6H25.4z"/>
</g>
<path class="st1" d="M101.1,7.8H25.4c-3.6,0-6.6,3-6.6,6.6v99.3c0,3.6,3,6.6,6.6,6.6h75.6c3.6,0,6.6-3,6.6-6.6V14.4
	C107.7,10.7,104.7,7.8,101.1,7.8z M53.5,21h45.9v10H53.5V21z M28.1,17.2h17.6v17.6H28.1V17.2z M68.5,98.6H30.7
	c-1.4,0-2.5-1.1-2.5-2.5s1.1-2.5,2.5-2.5h37.8c1.4,0,2.5,1.1,2.5,2.5S69.9,98.6,68.5,98.6z M97.5,87.9H30.7c-1.4,0-2.5-1.1-2.5-2.5
	s1.1-2.5,2.5-2.5h66.8c1.4,0,2.5,1.1,2.5,2.5S98.9,87.9,97.5,87.9z M97.5,77.2H30.7c-1.4,0-2.5-1.1-2.5-2.5s1.1-2.5,2.5-2.5h66.8
	c1.4,0,2.5,1.1,2.5,2.5S98.9,77.2,97.5,77.2z M97.5,66.5H30.7c-1.4,0-2.5-1.1-2.5-2.5c0-1.4,1.1-2.5,2.5-2.5h66.8
	c1.4,0,2.5,1.1,2.5,2.5C100,65.4,98.9,66.5,97.5,66.5z M97.5,55.8H30.7c-1.4,0-2.5-1.1-2.5-2.5s1.1-2.5,2.5-2.5h66.8
	c1.4,0,2.5,1.1,2.5,2.5S98.9,55.8,97.5,55.8z M97.5,45.1H30.7c-1.4,0-2.5-1.1-2.5-2.5s1.1-2.5,2.5-2.5h66.8c1.4,0,2.5,1.1,2.5,2.5
	S98.9,45.1,97.5,45.1z"/>
<g>
	<polygon class="st0" points="58.8,93.6 33,70.3 44.4,57.7 57.8,69.8 85,40.6 97.4,52.2 	"/>
</g>
</svg>
