<?xml version="1.0" encoding="utf-8"?>
<!-- Generator: Adobe Illustrator 19.0.1, SVG Export Plug-In . SVG Version: 6.00 Build 0)  -->
<svg version="1.1" id="Capa_2" xmlns="http://www.w3.org/2000/svg" xmlns:xlink="http://www.w3.org/1999/xlink" x="0px" y="0px"
	 viewBox="0 0 111.5 120.3" style="enable-background:new 0 0 111.5 120.3;" xml:space="preserve">
<style type="text/css">
	.st0{fill:#E8F3F1;}
	.st1{fill:#FFFFFF;}
</style>
<path class="st0" d="M96.2,7.1H14.1c-6.6,0-12,5.4-12,12v82.1c0,6.6,5.4,12,12,12h43.2l7.6-7.6H43.4V82h23.5v21.6l28.7-28.7h-22
	V51.4h23.5v22l11.1-11.1V19.1C108.2,12.5,102.8,7.1,96.2,7.1z M36,105.6H12.5V82H36V105.6z M36,75.1H12.5V51.6H36V75.1z M36,42H12.5
	V18.5H36V42z M66.9,74.9H43.4V51.4h23.5V74.9z M66.9,42H43.4V18.5h23.5V42z M97.1,42H73.6V18.5h23.5V42z"/>
<g>
	<path class="st1" d="M58.2,115.2h-44c-7.7,0-14-6.3-14-14V19.1c0-7.7,6.3-14,14-14h82.1c7.7,0,14,6.3,14,14v44L58.2,115.2z
		 M14.1,9.1c-5.5,0-10,4.5-10,10v82.1c0,5.5,4.5,10,10,10h42.4l49.7-49.7V19.1c0-5.5-4.5-10-10-10H14.1z"/>
</g>
<g>
	<path class="st1" d="M95.9,115.2H51.3l58.9-58.9v44.7C110.2,108.8,103.8,115.2,95.9,115.2z M60.9,111.2h35
		c5.7,0,10.3-4.6,10.3-10.3v-35L60.9,111.2z"/>
</g>
<path class="st1" d="M56.1,113.2h39.8c6.8,0,12.3-5.5,12.3-12.3V61.1L56.1,113.2z M97.1,105.6H73.6v-5.9L91.2,82h5.9V105.6z"/>
<path class="st0" d="M69.3,62.2c-6.6,0-12,5.4-12,12v39l51-51H69.3z"/>
<g>
	<path class="st1" d="M57.2,115.2c-0.3,0-0.5,0-0.8-0.2c-0.7-0.3-1.2-1-1.2-1.8v-39c0-7.7,6.3-14,14-14h39c0.8,0,1.5,0.5,1.8,1.2
		c0.3,0.7,0.1,1.6-0.4,2.2l-51,51C58.3,115,57.8,115.2,57.2,115.2z M69.3,64.2c-5.5,0-10,4.5-10,10v34.1l44.1-44.1H69.3z"/>
</g>
<rect x="15.3" y="54.4" class="st1" width="17.6" height="17.6"/>
</svg>
