<?xml version="1.0" encoding="utf-8"?>
<!-- Generator: Adobe Illustrator 19.0.1, SVG Export Plug-In . SVG Version: 6.00 Build 0)  -->
<svg version="1.1" id="Capa_2" xmlns="http://www.w3.org/2000/svg" xmlns:xlink="http://www.w3.org/1999/xlink" x="0px" y="0px"
	 viewBox="0 0 124.4 120.3" style="enable-background:new 0 0 124.4 120.3;" xml:space="preserve">
<style type="text/css">
	.st0{fill:#E8F3F1;}
	.st1{fill:#FFFFFF;}
</style>
<path class="st0" d="M102.8,110c-1.4,2.1-3.9,2.6-5.7,2.6H31.8c-1.8,0-4.2-0.4-5.7-2.6c-1.6-2.4-1.6-6.3,0.2-10.6l26.3-60.2
	c0.1-0.3,0.2-0.7,0.2-1c0,0,0-24.5,0-24.8h23.3c0,0.5,0,24.8,0,24.8c0,0.3,0.1,0.7,0.2,1l26.2,60.1
	C104.3,103.7,104.4,107.6,102.8,110z"/>
<path class="st1" d="M78.5,9.8H49.7c-2,0-3.5-1.6-3.5-3.5s1.6-3.5,3.5-3.5h28.8c2,0,3.5,1.6,3.5,3.5S80.4,9.8,78.5,9.8z M97.1,117.6
	H31.8c-4.2,0-7.7-1.7-9.8-4.8c-2.6-3.9-2.7-9.4-0.3-15.4l26.1-59.8V14.9c0-1.4,1.1-2.5,2.5-2.5s2.5,1.1,2.5,2.5v23.3
	c0,0.3-0.1,0.7-0.2,1L26.3,99.3c-1.7,4.3-1.8,8.2-0.2,10.6c1.4,2.1,3.9,2.6,5.7,2.6h65.3c1.8,0,4.2-0.4,5.7-2.6
	c1.6-2.4,1.6-6.3-0.2-10.7L76.3,39.2c-0.1-0.3-0.2-0.7-0.2-1V14.9c0-1.4,1.1-2.5,2.5-2.5s2.5,1.1,2.5,2.5v22.7l26.1,59.7
	c2.5,6.1,2.4,11.6-0.3,15.4C104.8,115.9,101.3,117.6,97.1,117.6z"/>
<path class="st1" d="M96.5,97.2L83.4,67.4c-11.1-5.5-29.3,9.5-39.4,3.6L32.3,97.2c-1.5,3.6-2.5,6.8-1.1,8.9c1.2,1.8,4.3,2.2,5.8,2.2
	h55c1.5,0,4.6-0.4,5.8-2.2C99.1,104.1,98,100.8,96.5,97.2z M59.2,93.2c-1.6,0-3-1.3-3-3c0-1.6,1.3-3,3-3c1.6,0,3,1.3,3,3
	C62.2,91.8,60.9,93.2,59.2,93.2z M69.3,87.2c-3.9,0-7.1-3.2-7.1-7.1c0-3.9,3.2-7.1,7.1-7.1c3.9,0,7.1,3.2,7.1,7.1
	C76.4,84,73.2,87.2,69.3,87.2z"/>
</svg>
