<?xml version="1.0" encoding="utf-8"?>
<!-- Generator: Adobe Illustrator 19.0.1, SVG Export Plug-In . SVG Version: 6.00 Build 0)  -->
<svg version="1.1" id="Capa_2" xmlns="http://www.w3.org/2000/svg" xmlns:xlink="http://www.w3.org/1999/xlink" x="0px" y="0px"
	 viewBox="0 0 108.6 120.3" style="enable-background:new 0 0 108.6 120.3;" xml:space="preserve">
<style type="text/css">
	.st0{fill:#E8F3F1;}
	.st1{fill:#FFFFFF;}
</style>
<path class="st0" d="M77.7,56.2c-15.1,0-27.3,12.2-27.3,27.3c0,15.1,12.2,27.3,27.3,27.3c15.1,0,27.3-12.2,27.3-27.3
	C105,68.4,92.8,56.2,77.7,56.2z M79.7,85.5h-19v-4h15V61.3h4V85.5z"/>
<g>
	<path class="st1" d="M40.8,85.5H12.7C5.7,85.5,0,79.8,0,72.8V18.6c0-7,5.7-12.7,12.7-12.7h54.2c7,0,12.7,5.7,12.7,12.7v28.1h-4
		V18.6c0-4.8-3.9-8.7-8.7-8.7H12.7C7.9,9.8,4,13.7,4,18.6v54.2c0,4.8,3.9,8.7,8.7,8.7h28.1V85.5z"/>
</g>
<g>
	<path class="st1" d="M77.7,114.5c-17.1,0-30.9-13.9-30.9-30.9s13.9-30.9,30.9-30.9s30.9,13.9,30.9,30.9S94.8,114.5,77.7,114.5z
		 M77.7,56.8c-14.7,0-26.7,12-26.7,26.7s12,26.7,26.7,26.7c14.7,0,26.7-12,26.7-26.7S92.4,56.8,77.7,56.8z"/>
</g>
<g>
	<path class="st0" d="M66.9,7.8H12.7C6.8,7.8,2,12.7,2,18.6v54.2c0,5.9,4.8,10.7,10.7,10.7h28c0-1.8,0.1-3.7,0.4-5.4h-9.7V61.3h16.8
		c1.4-1.9,3.1-3.7,4.8-5.2V39.4h16.8v8.1c2.5-0.5,5.1-0.8,7.8-0.8v-28C77.7,12.7,72.8,7.8,66.9,7.8z M9.4,15.9h16.8v16.8H9.4V15.9z
		 M26.2,78.1H9.4V61.3h16.8V78.1z M26.3,56.6h-17V39.3h17V56.6z M48.2,56.2H31.4V39.4h16.8V56.2z M48.2,32.7H31.4V15.9h16.8V32.7z
		 M69.9,32.7H53.1V15.9h16.8V32.7z"/>
	<rect x="13.3" y="43.3" class="st0" width="9" height="9.3"/>
</g>
<rect x="11.8" y="41.8" class="st1" width="12" height="12.3"/>
</svg>
