<?xml version="1.0" encoding="utf-8"?>
<!-- Generator: Adobe Illustrator 19.0.1, SVG Export Plug-In . SVG Version: 6.00 Build 0)  -->
<svg version="1.1" id="Capa_2" xmlns="http://www.w3.org/2000/svg" xmlns:xlink="http://www.w3.org/1999/xlink" x="0px" y="0px"
	 viewBox="0 0 124.4 128.1" style="enable-background:new 0 0 124.4 128.1;" xml:space="preserve">
<style type="text/css">
	.st0{fill:#E8F3F1;}
	.st1{fill:#FFFFFF;}
</style>
<path class="st0" d="M99,101.8H44.7c-3.6,0-6.6-3-6.6-6.6V22.9c0-3.6,3-6.6,6.6-6.6H99c3.6,0,6.6,3,6.6,6.6v72.2
	C105.6,98.8,102.6,101.8,99,101.8z"/>
<path class="st1" d="M98.9,14.6H44.6c-4.7,0-8.6,3.9-8.6,8.6v34H25.4v-10c0-1-0.6-1.9-1.5-2.3c-0.9-0.4-2-0.2-2.7,0.5L5.7,61
	c-0.5,0.5-0.7,1.1-0.7,1.8s0.3,1.3,0.7,1.8L21.2,80c0.5,0.5,1.1,0.7,1.8,0.7c0.3,0,0.6-0.1,0.9-0.2c0.9-0.4,1.5-1.3,1.5-2.3v-10H36
	v27.2c0,4.7,3.9,8.6,8.6,8.6h23.9c0,4.4,0,7.6,0,8.6c0,6.4,3.2,8.3,7.4,6.3c4.1-1.9,28.7-16.9,28.7-16.9v-0.3
	c1.7-1.6,2.8-3.8,2.8-6.4V23.2C107.5,18.5,103.6,14.6,98.9,14.6z M74.6,31.7c0,0-6.1,2.9-6.1,9.6c0,5,0,39.5,0,58.7H44.6
	c-2.5,0-4.6-2.1-4.6-4.6V68.3h6.2c3,0,5.5-2.5,5.5-5.5c0-3-2.5-5.5-5.5-5.5H40v-34c0-2.5,2.1-4.6,4.6-4.6h52.8L74.6,31.7z"/>
</svg>
