<?xml version="1.0" encoding="utf-8"?>
<!-- Generator: Adobe Illustrator 19.0.1, SVG Export Plug-In . SVG Version: 6.00 Build 0)  -->
<svg version="1.1" id="Capa_2" xmlns="http://www.w3.org/2000/svg" xmlns:xlink="http://www.w3.org/1999/xlink" x="0px" y="0px"
	 viewBox="0 0 124.4 120.3" style="enable-background:new 0 0 124.4 120.3;" xml:space="preserve">
<style type="text/css">
	.st0{fill:#FFFFFF;}
	.st1{fill:#E8F3F1;}
</style>
<g>
	<path class="st0" d="M89.4,117.7H35c-4.1,0-7.5-3.3-7.5-7.5V17.4l13-13l10.7,10.7l11-11l11,11L84.1,4.2L96.8,17v93.3
		C96.8,114.4,93.5,117.7,89.4,117.7z M31.5,19v91.2c0,1.9,1.6,3.5,3.5,3.5h54.4c1.9,0,3.5-1.6,3.5-3.5V18.6l-8.7-8.7L73.3,20.8
		l-11-11l-11,11L40.5,10.1L31.5,19z"/>
</g>
<path class="st1" d="M84.1,7.1L73.3,17.9l-11-11l-11,11L40.5,7.3l-11,11v92.1c0,3,2.4,5.5,5.5,5.5h54.4c3,0,5.5-2.4,5.5-5.5V17.8
	L84.1,7.1z M54,62.4c0-1.4,0-2.2,0-2.3c0.4,0,1.1,0.1,2.1,0.1c1.1,0,1.9,0.1,2.6,0.1c0.3,0,1,0,1.9-0.1c1,0,1.9-0.2,2.8-0.6
	c0.8-0.3,1.5-0.7,2-1.3c0.6-0.5,0.8-1.3,0.8-2.3c0-0.6-0.2-1.2-0.5-1.7s-0.9-0.9-1.5-1.4c-0.8-0.5-1.8-1.1-3.1-1.6
	c-1.2-0.5-2.2-1-3.1-1.5c-1.2-0.7-2.1-1.5-2.6-2.5c-0.6-0.9-0.9-2.1-0.9-3.4c0-1,0.3-2.1,0.8-3c0.5-1,1.3-1.8,2.4-2.5
	c0.8-0.6,1.9-1,3.1-1.3c1.2-0.3,2.7-0.5,4.2-0.5c0.2,0,0.4,0,0.6,0c0.2,0,0.4,0,0.5,0l-0.1-8.9h3.2c0,0.9,0,1.8-0.1,2.8
	c0,1,0,1.8,0,2.6c0,1.8,0,3.4,0,4.8c0,1.4,0,2.2,0,2.3c-0.2,0-0.6,0-1.4-0.1c-0.8,0-1.8-0.1-3-0.1c-0.7,0-1.4,0.1-2.1,0.2
	c-0.7,0.1-1.3,0.3-1.9,0.6c-0.8,0.4-1.3,0.9-1.7,1.4s-0.5,1.1-0.5,1.6c0,0.6,0.2,1.1,0.6,1.6c0.4,0.5,0.8,0.9,1.4,1.3
	c0.8,0.5,1.8,1,3,1.5c1.2,0.5,2.3,1.1,3.2,1.7c1,0.6,1.9,1.4,2.6,2.4c0.7,0.9,1,2.1,1,3.5c0,1.4-0.4,2.6-1.1,3.7s-1.7,1.9-2.9,2.6
	c-1.1,0.6-2.3,1-3.6,1.3c-1.3,0.3-2.8,0.4-4.4,0.4c-0.2,0-0.5,0-0.8,0s-0.5,0-0.6,0l0.1,9.3h-3.2c0-0.7,0-1.7,0.1-2.9
	c0-1.2,0-2.1,0-2.7C54,65.4,54,63.8,54,62.4z M83.8,102.6H40.5c-1.1,0-2-0.9-2-2s0.9-2,2-2h43.3c1.1,0,2,0.9,2,2
	S84.9,102.6,83.8,102.6z M83.8,93H40.5c-1.1,0-2-0.9-2-2s0.9-2,2-2h43.3c1.1,0,2,0.9,2,2S84.9,93,83.8,93z M83.8,83.3H40.5
	c-1.1,0-2-0.9-2-2s0.9-2,2-2h43.3c1.1,0,2,0.9,2,2S84.9,83.3,83.8,83.3z"/>
</svg>
