<?xml version="1.0" encoding="utf-8"?>
<!-- Generator: Adobe Illustrator 19.0.1, SVG Export Plug-In . SVG Version: 6.00 Build 0)  -->
<svg version="1.1" id="Capa_2" xmlns="http://www.w3.org/2000/svg" xmlns:xlink="http://www.w3.org/1999/xlink" x="0px" y="0px"
	 viewBox="0 0 124.4 120.3" style="enable-background:new 0 0 124.4 120.3;" xml:space="preserve">
<style type="text/css">
	.st0{fill:#E8F3F1;}
	.st1{fill:#FFFFFF;}
	.st2{fill:#44BBC5;}
</style>
<g>
	<path class="st0" d="M75.1,72.6l23.1-23.1c10.5-10.5,10.5-27.4,0-37.9c-10.5-10.5-27.4-10.5-37.9,0L37.2,34.7L75.1,72.6z"/>
</g>
<g>
	<path class="st1" d="M75.4,65.4l19-19c8.6-8.6,8.6-22.5,0-31c-8.6-8.6-22.5-8.6-31,0l-19,19L75.4,65.4z"/>
</g>
<path class="st1" d="M34.2,37.7L11.1,60.8c-10.5,10.5-10.5,27.4,0,37.9c10.5,10.5,27.4,10.5,37.9,0l23.1-23.1L34.2,37.7z M16.9,90.7
	c1,1,1,2.6,0,3.5c-0.5,0.5-1.1,0.7-1.8,0.7s-1.3-0.2-1.8-0.7c-4-4-6.2-9.3-6.2-14.9c0-5.6,2.2-10.9,6.2-14.9c1-1,2.6-1,3.5,0
	c1,1,1,2.6,0,3.5c-3,3-4.7,7.1-4.7,11.3C12.2,83.6,13.8,87.6,16.9,90.7z"/>
<circle class="st2" cx="94.2" cy="94.9" r="24.1"/>
<g>
	<path class="st1" d="M112.9,79.6l-34,34c9.5,7.8,23.5,7.3,32.4-1.6C120.1,103.2,120.7,89.1,112.9,79.6z"/>
	<path class="st1" d="M109.5,76.2c-9.5-7.8-23.5-7.3-32.4,1.6c-8.9,8.9-9.4,22.9-1.6,32.4L109.5,76.2z"/>
</g>
</svg>
