<?xml version="1.0" encoding="utf-8"?>
<!-- Generator: Adobe Illustrator 19.0.1, SVG Export Plug-In . SVG Version: 6.00 Build 0)  -->
<svg version="1.1" id="Capa_2" xmlns="http://www.w3.org/2000/svg" xmlns:xlink="http://www.w3.org/1999/xlink" x="0px" y="0px"
	 viewBox="0 0 124.4 120.3" style="enable-background:new 0 0 124.4 120.3;" xml:space="preserve">
<style type="text/css">
	.st0{fill:#FFFFFF;}
	.st1{fill:#E8F3F1;}
</style>
<g>
	<path class="st0" d="M100,117.5H24.4c-4.7,0-8.6-3.9-8.6-8.6V9.6c0-4.7,3.9-8.6,8.6-8.6H100c4.7,0,8.6,3.9,8.6,8.6v99.3
		C108.6,113.7,104.7,117.5,100,117.5z M24.4,5c-2.5,0-4.6,2.1-4.6,4.6v99.3c0,2.5,2.1,4.6,4.6,4.6H100c2.5,0,4.6-2.1,4.6-4.6V9.6
		c0-2.5-2.1-4.6-4.6-4.6H24.4z"/>
</g>
<path class="st1" d="M100,3H24.4c-3.6,0-6.6,3-6.6,6.6v99.3c0,3.6,3,6.6,6.6,6.6H100c3.6,0,6.6-3,6.6-6.6V9.6C106.6,6,103.6,3,100,3
	z M52.4,16.2h45.9v10H52.4V16.2z M27.1,12.4h17.6V30H27.1V12.4z M67.4,93.9H29.6c-1.4,0-2.5-1.1-2.5-2.5s1.1-2.5,2.5-2.5h37.8
	c1.4,0,2.5,1.1,2.5,2.5S68.8,93.9,67.4,93.9z M96.5,83.2H29.6c-1.4,0-2.5-1.1-2.5-2.5s1.1-2.5,2.5-2.5h66.8c1.4,0,2.5,1.1,2.5,2.5
	S97.8,83.2,96.5,83.2z M96.5,72.5H29.6c-1.4,0-2.5-1.1-2.5-2.5s1.1-2.5,2.5-2.5h66.8c1.4,0,2.5,1.1,2.5,2.5S97.8,72.5,96.5,72.5z
	 M96.5,61.8H29.6c-1.4,0-2.5-1.1-2.5-2.5s1.1-2.5,2.5-2.5h66.8c1.4,0,2.5,1.1,2.5,2.5S97.8,61.8,96.5,61.8z M96.5,51.1H29.6
	c-1.4,0-2.5-1.1-2.5-2.5s1.1-2.5,2.5-2.5h66.8c1.4,0,2.5,1.1,2.5,2.5S97.8,51.1,96.5,51.1z M96.5,40.4H29.6c-1.4,0-2.5-1.1-2.5-2.5
	s1.1-2.5,2.5-2.5h66.8c1.4,0,2.5,1.1,2.5,2.5S97.8,40.4,96.5,40.4z"/>
<polygon class="st0" points="75.4,88.1 68.8,91.9 69.1,84 97.4,40 103.7,44 "/>
</svg>
