<?xml version="1.0" encoding="utf-8"?>
<!-- Generator: Adobe Illustrator 19.0.1, SVG Export Plug-In . SVG Version: 6.00 Build 0)  -->
<svg version="1.1" id="Capa_2" xmlns="http://www.w3.org/2000/svg" xmlns:xlink="http://www.w3.org/1999/xlink" x="0px" y="0px"
	 viewBox="0 0 98.2 120.3" style="enable-background:new 0 0 98.2 120.3;" xml:space="preserve">
<style type="text/css">
	.st0{fill:#E8F3F1;}
	.st1{fill:#FFFFFF;}
</style>
<rect x="18.5" y="56.3" class="st0" width="9.1" height="9.1"/>
<rect x="18.3" y="81.6" class="st0" width="9.6" height="9.6"/>
<path class="st0" d="M87.2,7.8h-12c-0.5,2.2-2.5,3.8-4.8,3.8H31.3c-2.3,0-4.3-1.6-4.8-3.8H11.6C9.1,7.8,7,9.8,7,12.4v99.3
	c0,2.5,2.1,4.6,4.6,4.6h75.6c2.5,0,4.6-2.1,4.6-4.6V12.4C91.8,9.8,89.8,7.8,87.2,7.8z M36.8,37.7h38.7v4.6H36.8V37.7z M36.8,63.2
	h38.7v4.6H36.8V63.2z M14.8,27.1h16.5v16.5H14.8V27.1z M14.5,52.3h17.1v17.1H14.5V52.3z M31.9,95.1H14.3V77.6h17.6V95.1z M75.4,93.2
	H36.8v-4.6h38.7V93.2z M84.8,84.1h-48v-4.6h48V84.1z M84.8,58.6h-48V54h48V58.6z M84.8,33.1h-48v-4.6h48V33.1z"/>
<path class="st1" d="M87.2,3.8h-12c-0.5-2.2-2.5-3.8-4.8-3.8H31.3c-2.3,0-4.3,1.7-4.8,3.8H11.6C6.9,3.8,3,7.6,3,12.4v99.3
	c0,4.7,3.9,8.6,8.6,8.6h75.6c4.7,0,8.6-3.9,8.6-8.6V12.4C95.8,7.6,92,3.8,87.2,3.8z M91.8,111.7c0,2.5-2.1,4.6-4.6,4.6H11.6
	c-2.5,0-4.6-2.1-4.6-4.6V12.4c0-2.5,2.1-4.6,4.6-4.6h14.9c0.5,2.2,2.5,3.8,4.8,3.8h39.1c2.3,0,4.3-1.6,4.8-3.8h12
	c2.5,0,4.6,2.1,4.6,4.6V111.7z"/>
</svg>
