<?xml version="1.0" encoding="utf-8"?>
<!-- Generator: Adobe Illustrator 19.0.1, SVG Export Plug-In . SVG Version: 6.00 Build 0)  -->
<svg version="1.1" id="Capa_2" xmlns="http://www.w3.org/2000/svg" xmlns:xlink="http://www.w3.org/1999/xlink" x="0px" y="0px"
	 viewBox="0 0 124.4 128.1" style="enable-background:new 0 0 124.4 128.1;" xml:space="preserve">
<style type="text/css">
	.st0{fill:#FFFFFF;}
	.st1{fill:#E8F3F1;}
</style>
<g>
	<path class="st0" d="M70.3,118.3h-46c-2.5,0-4.6-2.1-4.6-4.6V14.4c0-2.5,2.1-4.6,4.6-4.6H100c2.5,0,4.6,2.1,4.6,4.6v70.3l4,4V14.4
		c0-4.7-3.9-8.6-8.6-8.6H24.4c-4.7,0-8.6,3.9-8.6,8.6v99.3c0,4.7,3.9,8.6,8.6,8.6h50L70.3,118.3z"/>
	<path class="st0" d="M104.6,99.3v14.3c0,2.5-2.1,4.6-4.6,4.6H85.6l-4,4H100c4.7,0,8.6-3.9,8.6-8.6V95.3L104.6,99.3z"/>
</g>
<g>
	<path class="st1" d="M83.6,120.3H100c3.6,0,6.6-3,6.6-6.6V97.3L83.6,120.3z"/>
	<path class="st1" d="M50.7,98.6h-21c-1.4,0-2.5-1.1-2.5-2.5s1.1-2.5,2.5-2.5h16L44.1,92l4.1-4.1H29.6c-1.4,0-2.5-1.1-2.5-2.5
		s1.1-2.5,2.5-2.5h23.5l5.7-5.7H29.6c-1.4,0-2.5-1.1-2.5-2.5s1.1-2.5,2.5-2.5h34.2l5.7-5.7H29.6c-1.4,0-2.5-1.1-2.5-2.5
		c0-1.4,1.1-2.5,2.5-2.5h44.9l3.4-3.4l3.4,3.4h15c1.4,0,2.5,1.1,2.5,2.5c0,1.4-1.1,2.5-2.5,2.5h-10l5.7,5.7h4.3
		c1.4,0,2.5,1.1,2.5,2.5c0,1.2-0.8,2.2-1.9,2.4l9.5,9.5V14.4c0-3.6-3-6.6-6.6-6.6H24.4c-3.6,0-6.6,3-6.6,6.6v99.3
		c0,3.6,3,6.6,6.6,6.6h48L50.7,98.6z M96.5,55.8H29.6c-1.4,0-2.5-1.1-2.5-2.5s1.1-2.5,2.5-2.5h66.8c1.4,0,2.5,1.1,2.5,2.5
		S97.8,55.8,96.5,55.8z M96.5,45.1H29.6c-1.4,0-2.5-1.1-2.5-2.5s1.1-2.5,2.5-2.5h66.8c1.4,0,2.5,1.1,2.5,2.5S97.8,45.1,96.5,45.1z
		 M52.4,21h45.9v10H52.4V21z M27.1,17.2h17.6v17.6H27.1V17.2z"/>
</g>
<path class="st0" d="M96.2,53.2c0.7,0.7,1.8,0.7,2.5,0c0.7-0.7,0.7-1.8,0-2.5l-8.1-8.1c-0.7-0.7-1.8-0.7-2.5,0
	c-0.7,0.7-0.7,1.8,0,2.5L89,46l-5.5,6L80,52.2c-0.3,0-0.7,0.2-0.8,0.5c-0.1,0.3-0.1,0.7,0.2,0.9l3.2,3.2l-5.5,6.4
	c-0.3,0.3-0.3,0.8,0,1c0.3,0.3,0.8,0.3,1,0l6.4-5.5l3.2,3.2c0.2,0.2,0.6,0.3,0.9,0.2c0.3-0.1,0.5-0.4,0.5-0.8l0.1-3.5l6-5.5
	L96.2,53.2z"/>
</svg>
