<?xml version="1.0" encoding="utf-8"?>
<!-- Generator: Adobe Illustrator 19.0.1, SVG Export Plug-In . SVG Version: 6.00 Build 0)  -->
<svg version="1.1" id="Capa_2" xmlns="http://www.w3.org/2000/svg" xmlns:xlink="http://www.w3.org/1999/xlink" x="0px" y="0px"
	 viewBox="0 0 124.4 120.3" style="enable-background:new 0 0 124.4 120.3;" xml:space="preserve">
<style type="text/css">
	.st0{fill:#FFFFFF;}
	.st1{fill:#E8F3F1;}
</style>
<path class="st0" d="M121.6,41.9c0-19.1-18.7-34.6-41.8-34.6S37.9,22.8,37.9,41.9c0,19.1,18.7,34.6,41.8,34.6
	c3.7,0,7.3-0.4,10.7-1.1c0,0,0,0,0,0c0.8-0.1,1.1-0.1,1.8,0.4c0.7,0.4,9.5,6.8,14.7,6.2c0.3,0,0.4-0.3,0.2-0.3
	c-1.9-1.3-6.3-7.1-5.8-9.4c0.2-0.8,1.3-1.3,1.3-1.3l0,0C114,64.7,121.6,54.1,121.6,41.9z M64.4,63.4c-2.8,0-5.1-2.3-5.1-5.1
	s2.3-5.1,5.1-5.1c2.8,0,5.1,2.3,5.1,5.1S67.3,63.4,64.4,63.4z M79.8,63.4c-2.8,0-5.1-2.3-5.1-5.1s2.3-5.1,5.1-5.1s5.1,2.3,5.1,5.1
	S82.6,63.4,79.8,63.4z M95.1,63.4c-2.8,0-5.1-2.3-5.1-5.1s2.3-5.1,5.1-5.1c2.8,0,5.1,2.3,5.1,5.1S97.9,63.4,95.1,63.4z"/>
<path class="st1" d="M35.7,57C17.5,57,2.8,69.2,2.8,84.2c0,9.5,5.9,17.9,14.9,22.8l0,0c0,0,0.8,0.4,1,1c0.4,1.8-3.1,6.4-4.5,7.4
	c-0.1,0.1-0.1,0.2,0.2,0.3c4,0.5,11-4.6,11.5-4.9c0.5-0.3,0.8-0.3,1.4-0.3c0,0,0,0,0,0c2.7,0.6,5.5,0.9,8.4,0.9
	c18.2,0,32.9-12.2,32.9-27.2C68.6,69.2,53.9,57,35.7,57z M24.3,101.3c-2.1,0-3.8-1.7-3.8-3.8s1.7-3.8,3.8-3.8s3.8,1.7,3.8,3.8
	S26.4,101.3,24.3,101.3z M35.7,101.3c-2.1,0-3.8-1.7-3.8-3.8s1.7-3.8,3.8-3.8s3.8,1.7,3.8,3.8S37.8,101.3,35.7,101.3z M47,101.3
	c-2.1,0-3.8-1.7-3.8-3.8s1.7-3.8,3.8-3.8s3.8,1.7,3.8,3.8S49.1,101.3,47,101.3z"/>
</svg>
