<?xml version="1.0" encoding="utf-8"?>
<!-- Generator: Adobe Illustrator 19.0.1, SVG Export Plug-In . SVG Version: 6.00 Build 0)  -->
<svg version="1.1" id="Capa_2" xmlns="http://www.w3.org/2000/svg" xmlns:xlink="http://www.w3.org/1999/xlink" x="0px" y="0px"
	 viewBox="0 0 124.4 128.1" style="enable-background:new 0 0 124.4 128.1;" xml:space="preserve">
<style type="text/css">
	.st0{fill:#FFFFFF;}
	.st1{fill:#E8F3F1;}
</style>
<g>
	<path class="st0" d="M61,47.8c-1.1,0-2-0.9-2-2V18.5c0-1.1,0.9-2,2-2s2,0.9,2,2v27.3C63,46.9,62.1,47.8,61,47.8z"/>
</g>
<g>
	<path class="st0" d="M88.4,47.8H61c-1.1,0-2-0.9-2-2s0.9-2,2-2h27.3c1.1,0,2,0.9,2,2S89.5,47.8,88.4,47.8z"/>
</g>
<g>
	<g>
		<path class="st0" d="M39,84.6c-0.4,0-0.7-0.1-1-0.3c-13.5-8.1-21.8-22.9-21.8-38.5C16.1,21,36.3,0.9,61,0.9
			c24.4,0,44.1,19.1,44.9,43.4c0,1.1-0.8,2-1.9,2.1c-1.1,0-2-0.8-2.1-1.9C101.2,22.2,83.2,4.9,61,4.9c-22.6,0-40.9,18.4-40.9,40.9
			c0,14.5,7.4,27.6,19.9,35.1c0.9,0.6,1.3,1.8,0.7,2.7C40.3,84.3,39.7,84.6,39,84.6z"/>
	</g>
</g>
<path class="st1" d="M114.9,39c0,0,0.1-2.9-2.7-2.9s-2.5,2.9-2.5,2.9c-4,30.9-25.9,52.7-56.3,54.3V82.8c0-1.3-0.8-2.5-2-3
	c-1.2-0.5-2.6-0.2-3.6,0.7l-20.4,20.4c-0.6,0.6-1,1.4-1,2.3c0,0.9,0.3,1.7,1,2.3L47.9,126c0.6,0.6,1.5,1,2.3,1
	c0.4,0,0.8-0.1,1.2-0.2c1.2-0.5,2-1.7,2-3v-10.9C97.6,105.9,117.2,67.8,114.9,39z"/>
</svg>
