<?xml version="1.0" encoding="utf-8"?>
<!-- Generator: Adobe Illustrator 19.0.1, SVG Export Plug-In . SVG Version: 6.00 Build 0)  -->
<svg version="1.1" id="Capa_1" xmlns="http://www.w3.org/2000/svg" xmlns:xlink="http://www.w3.org/1999/xlink" x="0px" y="0px"
	 viewBox="0 0 98.2 120.3" style="enable-background:new 0 0 98.2 120.3;" xml:space="preserve">
<style type="text/css">
	.st0{fill:#FFFFFF;}
	.st1{fill:#E8F3F1;}
</style>
<path class="st0" d="M83.2,90.1c9.3-8.9,15-21.5,15-35.4c0-27.1-22-49.1-49.1-49.1S0,27.6,0,54.7h49.1C49.1,54.7,81.1,88,83.2,90.1z
	"/>
<path class="st1" d="M0,54.7c0,27.1,22,49.1,49.1,49.1V54.7H0z"/>
<path class="st0" d="M53.2,65.5v49.1c9.5,0,18.4-2.7,25.9-7.4L53.2,65.5z"/>
<path class="st0" d="M53.1,65.6c0,0,22.8,36.7,25.9,41.7c3-1.8,5.7-4,8.2-6.4L53.1,65.6z"/>
</svg>
